<svg xmlns="http://www.w3.org/2000/svg" width="64" height="64" viewBox="0 -9 64 64"><g stroke-linejoin="round" fill="#154f5d"><rect width="64" height="40" y="6" ry="6.5" rx="6.5"></rect><path d="M22 0h20c5.5 0 6 6 6 6H16s.5-6 6-6M8.4 3.7h2.3q1.5 0 1.6 1V6H6.8V4.6q.1-.8 1.6-.9"></path><circle fill="#fff" cx="7" cy="13.2" r="2"></circle><circle stroke="#fff" stroke-width="2.25" cx="32" cy="27" r="14.5"></circle><rect width="13" height="17.8" x="25.5" y="18.1" rx="2" ry="2" fill="#a1c9cb"></rect><path d="M25.5 26.4h13v1.2h-13z"></path><rect width="1" height="3.2" x="27.5" y="21.4" rx=".5" ry=".5"></rect><rect width="1" height="4" x="27.5" y="29" rx=".5" ry=".5"></rect></g></svg>