<svg viewBox="0 0 64 46" xmlns="http://www.w3.org/2000/svg"><rect y="6" width="64" height="40" rx="6" ry="6.3" fill="#154f5d"/><circle cx="7" cy="13.2" r="2" fill="#fff"/><circle cx="32" cy="26.5" r="16.5" fill="#fff"/><circle cx="32" cy="26.5" r="14" fill="#154f5d"/><path d="M27.4 18h9.2q1.6.2 1.8 1.8v6H25.6v-6q.1-1.6 1.8-1.8m9.2 17h-9.2c-1 0-1.8-.9-1.8-1.8v-6h12.8v6q-.1 1.6-1.8 1.7" fill="#a1c9cb"/><g fill="#154f5d"><rect x="27.4" y="20.8" width="1" height="3.2" rx="1" ry=".5"/><rect x="27.4" y="28.5" width="1" height="4" rx=".5" ry=".5"/><path d="M22 0h20c5.5 0 6 6 6 6H16s.5-6 6-6M8.4 3.7h2.3q1.5 0 1.6 1V6H6.8V4.6q.1-.8 1.6-.9"/></g></svg>