<?xml version="1.0" encoding="UTF-8"?><svg viewBox="0 0 64 46" xmlns="http://www.w3.org/2000/svg"><g fill="#154f5d"><rect y="6" width="64" height="40" rx="6" ry="6.3158"/><g fill="#fff"><circle cx="7.0312" cy="13.188" r="2"/><circle cx="32" cy="26.5" r="16.5"/></g><circle cx="32" cy="26.5" r="14"/><g fill="#a1c9cb"><path d="m27.384 18.02h9.2311c1.0009 0 1.8066 0.79614 1.8066 1.7851v6.0149h-12.844v-6.0149c0-0.98892 0.80575-1.7851 1.8066-1.7851z"/><path d="m36.616 34.936h-9.2311c-1.0009 0-1.8066-0.79614-1.8066-1.7851v-6.0149h12.844v6.0149c0 0.98892-0.80575 1.7851-1.8066 1.7851z"/></g><rect x="27.357" y="20.773" width=".97318" height="3.2" rx=".97318" ry=".53333"/><rect x="27.371" y="28.455" width=".95773" height="4" rx=".5" ry=".49289"/><path d="m22 0h20c5.54 0 6 6 6 6h-32c0.048 0 0.46-6 6-6z" stroke-linejoin="round" stroke-width=".73666"/><path d="m8.3607 3.7h2.341c0.87504 0 1.5795 0.41327 1.5795 0.92662v1.3734h-5.5v-1.3734c0-0.51335 0.70445-0.92662 1.5795-0.92662z" stroke-linejoin="round" stroke-width=".12076"/></g></svg>